<svg width="80" height="80" xmlns="http://www.w3.org/2000/svg">

 <g>
  <title>Layer 1</title>
  <text xml:space="preserve" text-anchor="start" font-family="Noto Sans JP" font-size="19" id="svg_4" y="58.61901" x="6.8131" stroke-width="0" stroke="#000" fill="#000000">---| |---( )</text>
  <g id="svg_6">
   <text xml:space="preserve" text-anchor="start" font-family="Noto Sans JP" font-size="19" id="svg_1" y="36.73811" x="3.88675" stroke-width="0" stroke="#000" fill="#000000">PLC</text>
   <g id="svg_5">
    <text xml:space="preserve" text-anchor="start" font-family="Noto Sans JP" font-size="19" id="svg_2" y="36.73811" x="39.45675" stroke-width="0" stroke="#000" fill="#000000">l  gic</text>
    <path stroke="#000" id="svg_3" d="m49.01235,33.21917c0.63203,0 1.14417,-0.53217 1.14417,-1.18893c0,-0.65645 -0.51214,-1.18893 -1.14417,-1.18893c-0.14482,0 -0.28201,0.03107 -0.40953,0.08225l-0.24507,-0.39143l-0.39839,0.26959l0.24361,0.38869c-0.20667,0.21506 -0.33478,0.51206 -0.33478,0.83983c0,0.65676 0.51214,1.18893 1.14417,1.18893zm0.0044,3.21799c2.35312,0 4.26066,-1.98215 4.26066,-4.42733c0,-2.44517 -1.90753,-4.42733 -4.26066,-4.42733c-2.35312,0 -4.26066,1.98215 -4.26066,4.42733c0,2.44517 1.90753,4.42733 4.26066,4.42733zm-2.98252,-5.89224c0.07065,-0.15353 0.15039,-0.30157 0.24214,-0.4417l0.92577,0.20684c0.14101,-0.16023 0.30165,-0.30279 0.47901,-0.4219l-0.03488,-0.97539c0.14863,-0.07006 0.30136,-0.12824 0.45995,-0.17363l0.57311,0.76581c0.10905,-0.01554 0.21986,-0.0262 0.33302,-0.0262c0.10436,0 0.20696,0.00883 0.3081,0.02254l0.57018,-0.76155c0.15859,0.046 0.31221,0.10418 0.46025,0.17333l-0.0343,0.95833c0.18586,0.12124 0.35413,0.26806 0.50187,0.43469l0.90115,-0.20044c0.09176,0.13891 0.17091,0.28756 0.24214,0.44109l-0.6121,0.70336c0.06625,0.21415 0.10378,0.442 0.11286,0.67717l0.81144,0.44596c-0.01612,0.1715 -0.04837,0.33721 -0.08824,0.50049l-0.90408,0.13007c-0.08501,0.21384 -0.19788,0.41184 -0.33273,0.59157l0.3465,0.8837c-0.11697,0.1185 -0.24332,0.22664 -0.37611,0.32594l-0.78066,-0.50932c-0.19055,0.10266 -0.39546,0.18064 -0.61122,0.22846l-0.28377,0.91416c-0.0815,0.0064 -0.1627,0.01279 -0.24537,0.01279c-0.08267,0 -0.16416,-0.0067 -0.24537,-0.01279l-0.28612,-0.92238c-0.21107,-0.04965 -0.4107,-0.12672 -0.59686,-0.22846l-0.79268,0.51694c-0.13338,-0.09931 -0.26003,-0.20745 -0.3767,-0.32594l0.35647,-0.90959c-0.12547,-0.1718 -0.23247,-0.35975 -0.31309,-0.56202l-0.93369,-0.13434c-0.03958,-0.16297 -0.07241,-0.32929 -0.08853,-0.50049l0.84046,-0.4618c0.00997,-0.22115 0.04397,-0.4356 0.10407,-0.6397l-0.63203,-0.7256z" stroke-width="0" fill="#000000"/>
   </g>
  </g>
 </g>
</svg>